<?xml version="1.0" encoding="UTF-8" standalone="no"?>
<svg
   xmlns:dc="http://purl.org/dc/elements/1.1/"
   xmlns:cc="http://creativecommons.org/ns#"
   xmlns:rdf="http://www.w3.org/1999/02/22-rdf-syntax-ns#"
   xmlns:svg="http://www.w3.org/2000/svg"
   xmlns="http://www.w3.org/2000/svg"
   xmlns:sodipodi="http://sodipodi.sourceforge.net/DTD/sodipodi-0.dtd"
   xmlns:inkscape="http://www.inkscape.org/namespaces/inkscape"
   id="_"
   data-name="ͼ"
   viewBox="0 0 169 55.000002"
   version="1.1"
   sodipodi:docname="logo_0629.svg"
   inkscape:version="1.0 (4035a4fb49, 2020-05-01)"
   width="169"
   height="55">
  <metadata
     id="metadata41">
    <rdf:RDF>
      <cc:Work
         rdf:about="">
        <dc:format>image/svg+xml</dc:format>
        <dc:type
           rdf:resource="http://purl.org/dc/dcmitype/StillImage" />
        <dc:title></dc:title>
      </cc:Work>
    </rdf:RDF>
  </metadata>
  <sodipodi:namedview
     inkscape:document-rotation="0"
     pagecolor="#ffffff"
     bordercolor="#666666"
     borderopacity="1"
     objecttolerance="10"
     gridtolerance="10"
     guidetolerance="10"
     inkscape:pageopacity="0"
     inkscape:pageshadow="2"
     inkscape:window-width="2400"
     inkscape:window-height="1284"
     id="namedview39"
     showgrid="false"
     showborder="true"
     inkscape:zoom="7.0450072"
     inkscape:cx="69.738712"
     inkscape:cy="24.535865"
     inkscape:window-x="2391"
     inkscape:window-y="-9"
     inkscape:window-maximized="1"
     inkscape:current-layer="_" />
  <defs
     id="defs4">
    <style
       id="style2">
      .cls-1 {
        fill: #3f3b3a;
      }

      .cls-1, .cls-2 {
        fill-rule: evenodd;
      }

      .cls-2 {
        fill: #e60013;
      }

      .cls-3 {
        fill: none;
        stroke: #231916;
        stroke-miterlimit: 22.9256;
        stroke-width: 0.5669px;
      }
    </style>
    <pattern
       y="0"
       x="0"
       height="6"
       width="6"
       patternUnits="userSpaceOnUse"
       id="EMFhbasepattern" />
  </defs>
  <g
     inkscape:groupmode="layer"
     id="layer1"
     inkscape:label="Layer 1"
     style="display:inline">
    <path
       style="fill:#3f3b3a;fill-opacity:1;fill-rule:evenodd;stroke:none;stroke-width:0.413304"
       d="m 168.80361,15.597506 c 0,-0.137766 0,-0.413303 -0.13778,-0.413303 -0.27553,-0.137767 -0.4133,-0.275538 -0.55106,-0.275538 -3.99528,0 -3.99528,0 -3.99528,0 -0.27553,0 -0.4133,0.137771 -0.68883,0.137771 -0.13778,0.137767 -0.27554,0.275533 -0.27554,0.55107 -0.82661,4.959646 -0.82661,4.959646 -0.82661,4.959646 -0.13777,1.377678 -0.55107,2.479824 -1.23991,3.168664 -0.68884,0.826608 -1.37768,1.239911 -2.20428,1.239911 -1.23992,0 -1.65322,-1.102144 -1.23992,-3.168663 0.96438,-6.199558 0.96438,-6.199558 0.96438,-6.199558 0,-0.137766 0,-0.413303 -0.27554,-0.413303 -0.13776,-0.137767 -0.27553,-0.275538 -0.55107,-0.275538 -3.8575,0 -3.8575,0 -3.8575,0 -0.27554,0 -0.4133,0.137771 -0.68884,0.275538 -0.13777,0 -0.27554,0.275537 -0.27554,0.413303 -1.10214,6.888399 -1.10214,6.888399 -1.10214,6.888399 0,0.551071 -0.13777,1.239911 -0.13777,1.653215 0,0.55107 0.13777,1.102141 0.27554,1.653216 0.13777,0.55107 0.27553,0.964374 0.68884,1.377677 0.27553,0.275538 0.68883,0.688842 1.37768,0.826608 0.55107,0.275538 1.23991,0.413304 2.06651,0.413304 1.10215,0 2.34206,-0.275537 3.30644,-0.826607 1.10214,-0.413305 2.06651,-1.239912 2.75535,-2.342057 0,0 0,0 0,0 -0.55106,2.342057 -0.55106,2.342057 -0.55106,2.342057 -0.27555,2.204286 -1.79099,3.168663 -4.54635,3.168663 -1.37767,0 -2.61759,-0.13777 -3.8575,-0.413303 -0.55107,-0.137771 -0.96438,0 -0.96438,0.413303 -0.55107,2.06652 -0.55107,2.06652 -0.55107,2.06652 0,0.275533 0,0.413303 0.13777,0.55107 0.13777,0.137766 0.27554,0.275537 0.55107,0.413304 1.23991,0.275538 2.89313,0.551071 4.82188,0.551071 5.78625,0 8.95492,-2.479823 9.78153,-7.163933 z"
       id="path893" />
    <path
       style="fill:#3f3b3a;fill-opacity:1;fill-rule:evenodd;stroke:none;stroke-width:0.413304"
       d="m 123.61572,28.409925 c 2.47983,0 4.54634,-0.55107 6.06179,-1.515449 1.37768,-0.964374 2.34206,-2.342052 2.47982,-4.133038 1.10215,-7.163932 1.10215,-7.163932 1.10215,-7.163932 0,-0.137766 0,-0.413303 -0.13777,-0.413303 -0.13777,-0.137767 -0.27554,-0.275538 -0.55107,-0.275538 -3.99528,0 -3.99528,0 -3.99528,0 -0.27553,0 -0.4133,0.137771 -0.68883,0.137771 -0.13777,0.137767 -0.27554,0.275533 -0.27554,0.55107 -0.96438,6.750628 -0.96438,6.750628 -0.96438,6.750628 -0.13776,0.826608 -0.4133,1.377682 -0.8266,1.790986 -0.27554,0.413304 -0.96438,0.688837 -1.65322,0.688837 -0.8266,0 -1.37768,-0.275533 -1.51544,-0.688837 -0.27555,-0.413304 -0.27555,-0.964378 -0.13777,-1.790986 0.96438,-6.750628 0.96438,-6.750628 0.96438,-6.750628 0,-0.137766 0,-0.413303 -0.13777,-0.413303 -0.13778,-0.137767 -0.27554,-0.275538 -0.55108,-0.275538 -4.13304,0 -4.13304,0 -4.13304,0 -0.13776,0 -0.4133,0.137771 -0.55106,0.275538 -0.27555,0 -0.27555,0.275537 -0.41331,0.413303 -0.96438,6.750628 -0.96438,6.750628 -0.96438,6.750628 -0.13776,0.826608 -0.4133,1.377682 -0.68884,1.790986 -0.4133,0.413304 -0.96438,0.688837 -1.79098,0.688837 -0.68884,0 -1.23991,-0.275533 -1.51545,-0.688837 -0.13776,-0.413304 -0.27554,-0.964378 -0.13776,-1.790986 0.96437,-6.750628 0.96437,-6.750628 0.96437,-6.750628 0.13777,-0.137766 0,-0.413303 -0.13776,-0.413303 -0.13778,-0.137767 -0.27554,-0.275538 -0.55108,-0.275538 -3.99527,0 -3.99527,0 -3.99527,0 -0.27553,0 -0.41331,0.137771 -0.68884,0.137771 -0.13776,0.137767 -0.27554,0.275533 -0.27554,0.55107 -1.10214,7.163932 -1.10214,7.163932 -1.10214,7.163932 -0.27553,1.790986 0.27553,3.168664 1.37768,4.133038 1.10214,0.964379 3.0309,1.515449 5.51072,1.515449 1.10215,0 2.06652,-0.275537 3.03089,-0.55107 0.96438,-0.413304 1.79099,-0.964379 2.20429,-1.377683 0.41331,0.413304 0.96438,0.964379 1.92875,1.377683 0.82661,0.275533 1.79099,0.55107 2.75536,0.55107 z"
       id="path895" />
    <path
       style="fill:#3f3b3a;fill-opacity:1;fill-rule:evenodd;stroke:none;stroke-width:0.413304"
       d="m 96.062125,18.215096 c 0,0.413304 -0.137763,1.239911 -0.413299,2.479822 -0.13777,1.239912 -0.413307,2.204291 -0.413307,3.030898 -0.137766,0.688837 -0.137766,1.377679 -0.137766,1.928749 0,0.826607 0.551073,1.515448 1.377681,2.066519 0.826609,0.413304 1.928753,0.688841 3.306424,0.688841 0.964382,0 1.790992,-0.137766 2.755362,-0.275537 0.27554,0 0.41331,-0.137767 0.68885,-0.275533 0.13776,-0.137771 0.27552,-0.275537 0.27552,-0.551074 0,-0.137768 0.13778,-0.551071 0.13778,-0.964375 0.13777,-0.55107 0.13777,-0.826607 0.13777,-1.102145 0,-0.137766 0,-0.413304 -0.13777,-0.413304 -0.13778,-0.137767 -0.4133,-0.275533 -0.55107,-0.137767 -0.27554,0 -0.55108,0 -0.82661,0 -0.68884,0 -1.10215,-0.275537 -1.23991,-0.55107 -0.27554,-0.413304 -0.27554,-1.102144 0,-2.20429 0.55107,-3.719734 0.55107,-3.719734 0.55107,-3.719734 2.47983,0 2.47983,0 2.47983,0 0.13776,0 0.4133,-0.137767 0.55107,-0.275534 0.27554,0 0.4133,-0.275537 0.4133,-0.413303 0.55107,-1.928753 0.55107,-1.928753 0.55107,-1.928753 0,-0.137766 0,-0.413303 -0.13777,-0.413303 -0.13777,-0.137767 -0.4133,-0.275538 -0.55106,-0.275538 -2.75537,0 -2.75537,0 -2.75537,0 0.55108,-3.16866 0.55108,-3.16866 0.55108,-3.16866 0,-0.137771 -0.13778,-0.275537 -0.27554,-0.413304 -0.13777,-0.13777 -0.27554,-0.13777 -0.55107,-0.13777 -3.581976,0.551074 -3.581976,0.551074 -3.581976,0.551074 -0.551072,0.137766 -0.826608,0.413303 -0.964371,0.826608 -0.688846,2.342052 -0.688846,2.342052 -0.688846,2.342052 -0.826608,0 -0.826608,0 -0.826608,0 -0.55107,0.137771 -0.826603,0.275538 -0.964375,0.688841 -0.413303,1.928753 -0.413303,1.928753 -0.413303,1.928753 -0.137767,0.137766 0,0.275533 0.13777,0.413303 0.137767,0.137767 0.275533,0.275534 0.551072,0.275534 z"
       id="path897" />
    <path
       style="fill:#3f3b3a;fill-opacity:1;fill-rule:evenodd;stroke:none;stroke-width:0.413304"
       d="m 72.779345,27.445551 c 0.137766,-1.928752 0.413303,-4.408575 0.964375,-7.301703 0.826607,-3.719734 0.826607,-3.719734 0.826607,-3.719734 0,-0.137766 0,-0.275538 -0.137767,-0.551071 -0.137766,-0.13777 -0.275537,-0.275537 -0.55107,-0.275537 -1.928752,-0.688841 -3.995272,-0.964374 -5.786254,-0.964374 -1.653215,0 -3.30643,0.137767 -4.546342,0.688837 -1.377682,0.413304 -2.479823,1.102145 -3.168663,1.790986 -0.826609,0.688837 -1.377679,1.377679 -1.790983,2.342052 -0.551074,0.826608 -0.826608,1.653216 -0.964378,2.342057 -0.137767,0.688841 -0.275533,1.377678 -0.275533,1.928752 0,1.377679 0.55107,2.479823 1.515445,3.306431 0.964377,0.964374 2.066519,1.377678 3.581968,1.377678 0.55107,0 1.102144,-0.137766 1.653214,-0.275537 0,0 0,0 0,0 0.964375,-0.55107 2.755361,-0.964375 4.821881,-0.964375 1.515444,0 2.755355,0.137768 3.8575,0.551071 0,-0.137766 0,-0.137766 0,-0.275533 z m -5.37295,-9.643759 c 0.551071,0 0.964374,0.13777 1.377678,0.275537 -0.55107,2.479823 -0.55107,2.479823 -0.55107,2.479823 -0.275537,1.653215 -0.826608,2.755361 -1.377678,3.444198 -0.688841,0.551074 -1.377682,0.964377 -2.066519,0.964377 -0.964379,0 -1.515449,-0.68884 -1.653215,-2.066518 0,-1.377682 0.413303,-2.479824 1.23991,-3.581968 0.688838,-0.964375 1.790983,-1.515449 3.030894,-1.515449 z"
       id="path899" />
    <path
       style="fill:#3f3b3a;fill-opacity:1;fill-rule:evenodd;stroke:none;stroke-width:0.413304"
       d="m 149.5161,27.583318 c 0,-1.928753 0.27552,-4.408576 0.68883,-7.301703 0.68885,-3.719734 0.68885,-3.719734 0.68885,-3.719734 0,-0.137767 0,-0.275533 -0.13777,-0.551071 -0.13778,-0.137767 -0.27554,-0.275537 -0.55108,-0.275537 -2.06651,-0.688837 -3.99527,-1.102141 -5.92402,-1.102141 -1.65322,0 -3.16866,0.275533 -4.54634,0.826608 -1.23991,0.413303 -2.34205,0.964374 -3.0309,1.653215 -0.68883,0.688837 -1.37768,1.515445 -1.79098,2.342052 -0.41331,0.964378 -0.68883,1.790987 -0.82661,2.479823 -0.13777,0.688841 -0.13777,1.377683 -0.13777,1.928753 0.13777,1.377678 0.55107,2.479823 1.51546,3.30643 1.10214,0.964375 2.20428,1.377679 3.71973,1.377679 0.55107,0 1.10214,-0.137767 1.65321,-0.275533 0,0 0,0 0,0 0.96438,-0.551075 2.75537,-0.964378 4.82188,-0.964378 1.37768,0 2.75536,0.13777 3.85751,0.551074 0,-0.137771 0,-0.137771 0,-0.275537 z m -5.78626,-9.643756 c 0.55107,0 1.10214,0 1.37768,0.275534 -0.4133,2.479822 -0.4133,2.479822 -0.4133,2.479822 -0.27555,1.653216 -0.68884,2.755361 -1.23992,3.306432 -0.68883,0.68884 -1.37768,1.102145 -2.06651,1.102145 -0.96437,0 -1.51546,-0.688842 -1.65322,-2.204286 0,-1.239912 0.27554,-2.342057 0.96437,-3.444202 0.82661,-0.964373 1.79099,-1.515445 3.0309,-1.515445 z"
       id="path901" />
    <path
       style="fill:#3f3b3a;fill-opacity:1;fill-rule:evenodd;stroke:none;stroke-width:0.413304"
       d="m 92.204625,19.041704 c 0.275537,-1.239912 0,-2.342052 -0.826607,-3.168661 -0.688841,-0.826607 -1.928753,-1.239911 -3.719735,-1.239911 -0.688841,0 -1.377677,0 -1.928753,0.275533 -1.239911,0.413304 -2.893126,0.688841 -4.684108,0.688841 -1.515449,0 -2.893127,-0.137766 -3.995272,-0.413303 -0.137767,0 -0.137767,0.137766 -0.275533,0.413303 -0.137771,1.239912 -0.275537,2.75536 -0.551074,4.546342 -1.239912,7.301703 -1.239912,7.301703 -1.239912,7.301703 0,0.137767 0.13777,0.275533 0.275537,0.413304 0.137766,0.137766 0.275538,0.275533 0.551071,0.275533 3.995272,0 3.995272,0 3.995272,0 0.275537,0 0.413303,-0.137767 0.55107,-0.275533 0.275537,-0.137771 0.413304,-0.275537 0.413304,-0.413304 0.68884,-4.82188 0.68884,-4.82188 0.68884,-4.82188 0.275537,-1.515448 0.688842,-2.617589 1.377679,-3.444197 0.688841,-0.68884 1.377682,-1.102145 2.066519,-1.102145 0.275537,0 0.413304,0 0.688841,0.137767 0.137766,0 0.275537,0 0.413303,0.13777 0,0.137768 0.137767,0.137768 0.275539,0.275534 0,0.137771 0.137766,0.275537 0.137766,0.413304 0,0.13777 0,0.275537 0,0.413303 0,0.137771 0,0.275538 0,0.413304 0,0.275537 0,0.413304 0,0.413304 0,0.13777 0,0.275537 0,0.551075 -0.137766,0.137767 -0.137766,0.275533 -0.137766,0.275533 -0.964379,6.337328 -0.964379,6.337328 -0.964379,6.337328 0,0.137767 0,0.275533 0.13777,0.413304 0.275533,0.137766 0.413304,0.275533 0.55107,0.275533 3.995272,0 3.995272,0 3.995272,0 0.275533,0 0.55107,-0.137767 0.688838,-0.275533 0.137771,-0.137771 0.275537,-0.275537 0.275537,-0.413304 z"
       id="path903" />
    <path
       style="fill:#e60013;fill-opacity:1;fill-rule:evenodd;stroke:none;stroke-width:0.413304"
       d="m 24.147258,4.3005348 c 6.888398,0 13.087956,3.0308943 17.496533,7.7150032 -3.857507,2.342057 -6.475096,6.612862 -6.475096,11.434741 0,0.137767 0,0.137767 0,0.137767 -2.204286,0.275537 -3.857506,1.377681 -4.133039,2.893126 -0.413303,2.06652 1.790982,4.959646 5.372951,6.750632 3.030894,1.515445 6.199558,1.653216 7.852774,0.551071 1.377678,-1.102145 0.688841,-4.133038 -1.377678,-6.750628 -1.102145,-1.515448 -2.342056,-2.479823 -3.581968,-3.030897 -0.137767,0 -0.413304,-0.137767 -0.55107,-0.137767 1.377677,-2.893126 3.8575,-4.959646 6.888394,-5.924021 1.377682,3.030895 2.20429,6.475091 2.20429,10.194826 0,7.026165 -3.168665,13.363493 -7.990544,17.772066 -0.964374,-4.68411 -3.857503,-8.403845 -7.577237,-9.505989 0.55107,-0.688838 0.826608,-1.653216 0.826608,-2.479823 0,-2.61759 -2.20429,-4.821876 -4.82188,-4.821876 -2.479823,0 -4.684108,2.204286 -4.684108,4.821876 0,2.20429 1.653214,4.133037 3.719734,4.546342 0.826608,4.82188 -2.479823,10.19483 -7.852773,12.81242 0.137767,0.137771 0.137767,0.137771 0.137767,0.137771 -3.168665,-0.688842 -5.924021,-1.790986 -8.541614,-3.444202 6.061791,-1.790982 10.88367,-6.337325 11.572507,-11.572508 0,-0.275533 0,-0.551071 0.13777,-0.826608 0.275534,-2.06652 -1.653214,-4.546343 -4.684112,-6.061787 0,0 0,0 0,0 -1.377678,-0.688841 -3.30643,-1.239911 -5.37295,-1.377682 -1.928748,0 -4.4085716,0.551074 -6.7506277,1.790986 -2.0665195,1.10214 -3.8575014,2.342052 -4.9596462,3.719734 -0.41330387,-1.790985 -0.68884112,-3.581967 -0.68884112,-5.51072 0,-13.225723 10.74590002,-23.8338532 23.83385602,-23.8338532 z m 18.32314,8.8171482 c -3.4442,2.06652 -5.924025,5.924021 -5.924025,10.332596 0.275537,0 0.551074,0 0.826607,0.137767 1.515451,-3.306431 4.270811,-5.648484 7.577242,-6.888394 -0.688841,-1.239912 -1.515449,-2.479823 -2.479824,-3.581969 z m -3.857504,33.75315 c -0.688839,-4.546343 -3.719736,-8.403849 -7.577238,-9.092687 -0.551074,0.413305 -1.239911,0.688838 -1.928752,0.688838 0.688841,4.82188 -2.342057,10.057063 -7.163932,13.225724 0.688837,0.13777 1.515445,0.13777 2.204286,0.13777 5.372949,0 10.470367,-1.928752 14.465636,-4.959645 z M 9.2683198,46.595295 c 4.5463422,-0.964374 8.4038432,-3.581968 10.3325962,-7.026167 -2.066519,1.102146 -5.097412,1.928753 -8.403844,2.06652 -2.6175935,0.137767 -5.0974166,-0.275537 -7.1639356,-0.964374 1.3776817,2.342053 3.1686645,4.270806 5.2351834,5.924021 z"
       id="path905" />
    <path
       style="fill:#e60013;fill-opacity:1;fill-rule:evenodd;stroke:none;stroke-width:0.413304"
       d="m 44.950222,16.699652 c 2.342053,-0.826609 4.959646,-0.964379 7.715002,-0.413304 0.13777,0.137766 0.413304,0.137766 0.688841,0.275533 0.275538,-0.275533 0.551071,-0.413305 0.964374,-0.413305 0.826608,0 1.377682,0.688842 1.377682,1.377683 0,0.826607 -0.551074,1.515445 -1.377682,1.515445 -0.688836,0 -1.377678,-0.55107 -1.377678,-1.239912 -0.275537,0 -0.413304,-0.137767 -0.688841,-0.137767 -2.342052,-0.55107 -4.546342,-0.413303 -6.612861,0.275537 -0.275533,-0.413303 -0.413304,-0.826607 -0.688837,-1.23991 z"
       id="path907" />
    <path
       style="fill:#e60013;fill-opacity:1;fill-rule:evenodd;stroke:none;stroke-width:0.413304"
       d="m 48.669956,10.086789 c 0.275533,0 0.688838,0 0.964375,0 0.275537,-0.4133028 0.826607,-0.5510739 1.239911,-0.5510739 0.826608,0 1.515449,0.5510739 1.515449,1.3776829 0,0.826607 -0.688841,1.377677 -1.515449,1.377677 -0.55107,0 -1.102145,-0.275537 -1.239911,-0.826607 -0.413304,0 -0.688842,0 -0.964375,0 -2.20429,0 -4.408575,0.55107 -6.199558,1.653215 -0.275537,-0.413303 -0.551074,-0.688841 -0.826607,-1.102145 2.066519,-1.239911 4.408572,-1.928749 7.026165,-1.928749 z"
       id="path909" />
    <path
       style="fill:#3f3b3a;fill-opacity:1;fill-rule:evenodd;stroke:none;stroke-width:0.413304"
       d="m 67.957466,36.262698 c 0.275537,-1.790982 0.275537,-1.790982 0.275537,-1.790982 1.377678,0 1.377678,0 1.377678,0 6.337328,0 6.337328,0 6.337328,0 1.790983,0 1.790983,0 1.790983,0 -0.413305,1.653216 -0.688842,2.755356 -0.826609,3.030893 -0.826607,3.444198 -0.826607,3.444198 -0.826607,3.444198 0.964374,0 0.964374,0 0.964374,0 1.515449,0 1.515449,0 1.515449,0 -0.137767,0.688841 -0.275537,1.102145 -0.413304,1.51545 0,0.275537 -0.137766,0.964374 -0.275537,1.790981 -0.137766,0.826609 -0.275533,1.515449 -0.275533,1.928753 -0.137772,0.55107 -0.275538,0.826608 -0.413305,1.239912 -0.13777,0.275537 -0.413303,0.55107 -0.826607,0.826607 -0.275537,0.137767 -0.826607,0.413304 -1.653215,0.55107 -0.688841,0.137772 -1.377682,0.275538 -2.20429,0.275538 0,-0.551071 -0.137767,-0.826608 -0.275533,-1.102145 -0.413304,-0.826607 -0.413304,-0.826607 -0.413304,-0.826607 1.515445,0.13777 2.342052,0 2.755356,-0.275533 0.275537,-0.275538 0.551074,-0.551076 0.551074,-0.826609 0.137767,-0.275537 0.275533,-0.68884 0.275533,-1.239911 0.275538,-1.377682 0.275538,-1.377682 0.275538,-1.377682 0.137767,-0.826607 0.137767,-0.826607 0.137767,-0.826607 -6.612861,0 -6.612861,0 -6.612861,0 -1.928749,0.13777 -1.928749,0.13777 -1.928749,0.13777 0.137766,-0.413304 0.275533,-0.688842 0.413304,-1.102146 0.137766,-0.275537 0.413303,-0.826608 0.688836,-1.653216 0.275537,-0.826607 0.413304,-1.515448 0.551076,-1.790981 0.413303,-1.653216 0.413303,-1.653216 0.413303,-1.653216 0.688837,0.137767 1.515444,0.137767 2.479823,0.275533 -0.413304,1.102145 -0.688841,1.790987 -0.688841,1.928753 -0.688841,2.204286 -0.688841,2.204286 -0.688841,2.204286 3.306431,0 3.306431,0 3.306431,0 0.275537,-1.102141 0.551074,-1.790982 0.551074,-2.066519 0.688837,-2.755356 0.688837,-2.755356 0.688837,-2.755356 -5.510716,0 -5.510716,0 -5.510716,0 -1.515449,0.137766 -1.515449,0.137766 -1.515449,0.137766 z M 57.62487,46.044224 c 1.102145,0 2.204289,-0.13777 3.306431,-0.275537 0.275537,-2.342056 0.275537,-2.342056 0.275537,-2.342056 -1.377679,0 -1.377679,0 -1.377679,0 -1.653214,0 -1.653214,0 -1.653214,0 0.275533,-1.239912 0.275533,-1.239912 0.275533,-1.239912 0.551074,-4.13304 0.551074,-4.13304 0.551074,-4.13304 0.137767,-1.377677 0.137767,-1.377677 0.137767,-1.377677 1.515449,0 1.515449,0 1.515449,0 1.377677,0 1.377677,0 1.377677,0 0.275538,-1.377679 0.275538,-1.377679 0.275538,-1.377679 0,-1.23991 0,-1.23991 0,-1.23991 2.342053,0 2.342053,0 2.342053,0 -0.137767,1.23991 -0.137767,1.23991 -0.137767,1.23991 -0.275538,1.377679 -0.275538,1.377679 -0.275538,1.377679 1.377682,0 1.377682,0 1.377682,0 1.790982,0 1.790982,0 1.790982,0 -0.275537,1.377677 -0.275537,1.377677 -0.275537,1.377677 -0.551071,4.408578 -0.551071,4.408578 -0.551071,4.408578 0,0.964374 0,0.964374 0,0.964374 -1.790981,0 -1.790981,0 -1.790981,0 -1.377682,0 -1.377682,0 -1.377682,0 -0.137767,2.066519 -0.137767,2.066519 -0.137767,2.066519 1.102144,-0.137766 1.102144,-0.137766 1.102144,-0.137766 -0.13777,-0.275537 -0.13777,-0.413304 -0.13777,-0.413304 -0.275533,-0.688842 -0.275533,-0.688842 -0.275533,-0.688842 0.826608,-0.137766 1.377678,-0.275533 1.515445,-0.413303 0.551074,-0.137767 0.551074,-0.137767 0.551074,-0.137767 0.137767,0.55107 0.275533,0.964375 0.413304,1.239912 0.137766,0.275537 0.275534,0.964374 0.551071,2.066519 -0.551071,0.137767 -1.377679,0.275537 -2.066519,0.55107 0,-0.137766 -0.137767,-0.275533 -0.137767,-0.275533 0,-0.551075 0,-0.551075 0,-0.551075 -1.377682,0.275538 -2.617594,0.551075 -3.581968,0.688842 -1.102146,0.137766 -2.066519,0.413303 -3.030893,0.55107 -0.137771,-0.688837 -0.275538,-1.10214 -0.275538,-1.239912 C 57.62487,46.044224 57.62487,46.044224 57.62487,46.044224 Z m 3.030898,-4.270809 c 0.826607,0 0.826607,0 0.826607,0 0.413304,-3.444198 0.413304,-3.444198 0.413304,-3.444198 -0.826608,0 -0.826608,0 -0.826608,0 -0.413303,3.444198 -0.413303,3.444198 -0.413303,3.444198 z m 3.995268,0 c 0.413303,-3.444198 0.413303,-3.444198 0.413303,-3.444198 -0.964375,0 -0.964375,0 -0.964375,0 -0.413303,3.444198 -0.413303,3.444198 -0.413303,3.444198 0.964375,0 0.964375,0 0.964375,0 z m 9.919291,4.408576 c -1.515445,-0.137767 -1.515445,-0.137767 -1.515445,-0.137767 -4.821879,0 -4.821879,0 -4.821879,0 -1.377678,0.137767 -1.377678,0.137767 -1.377678,0.137767 0.275533,-1.653216 0.275533,-1.653216 0.275533,-1.653216 1.377682,0 1.377682,0 1.377682,0 4.684108,0 4.684108,0 4.684108,0 1.653216,0 1.653216,0 1.653216,0 z"
       id="path911" />
    <path
       style="fill:#3f3b3a;fill-opacity:1;fill-rule:evenodd;stroke:none;stroke-width:0.413304"
       d="m 101.98615,44.94208 c -0.55108,-0.688842 -0.82661,-1.239912 -1.10215,-1.653216 -0.13776,-0.413303 -0.4133,-0.964374 -0.68883,-1.653216 -0.275539,-0.826608 -0.413312,-1.515449 -0.551075,-2.342057 -0.137763,-0.826607 -0.275536,-1.928748 -0.41331,-3.444197 0.275547,0 0.688846,0 0.964385,0 0.4133,0.137767 0.55107,0.137767 0.68883,0.137767 0.96439,-0.137767 0.96439,-0.137767 0.96439,-0.137767 0,0.551071 -0.13778,1.102145 0,1.515449 0,0.55107 0.13776,1.377678 0.27553,2.479823 0.27554,0.964374 0.55108,1.790982 0.96438,2.479824 0.41329,0.964374 0.41329,0.964374 0.41329,0.964374 0.13778,-0.275537 0.41331,-0.68884 0.82661,-1.239912 0.41331,-0.413304 0.82661,-1.515449 1.37769,-3.030894 0.55107,-1.377682 0.82661,-2.479823 0.96437,-2.893126 0.27554,-1.239912 0.27554,-1.239912 0.27554,-1.239912 0.27554,0.137766 0.82661,0.275533 1.23991,0.275533 0.41331,0.13777 0.82661,0.13777 1.37768,0.275537 -0.27554,0.551071 -0.4133,0.964375 -0.55107,1.239912 -0.82661,2.479823 -0.82661,2.479823 -0.82661,2.479823 -0.4133,1.102145 -0.96437,2.066519 -1.51545,3.030894 -0.4133,0.964379 -0.96437,1.790986 -1.37768,2.20429 -0.27553,0.413304 -0.27553,0.413304 -0.27553,0.413304 0.55107,0.551071 1.10214,0.964374 1.65321,1.239911 0.68884,0.413304 1.51545,0.688837 2.47983,1.102142 -0.27554,0.275537 -0.55107,0.551074 -0.68885,0.68884 -0.13776,0.275538 -0.55107,0.688841 -0.8266,1.102146 -1.23991,-0.413305 -2.06652,-0.964379 -2.61759,-1.239912 -0.55107,-0.413304 -1.10215,-0.826607 -1.79098,-1.377683 -0.82661,0.688842 -1.65322,1.239912 -2.34207,1.653216 -0.68883,0.275537 -1.653215,0.826607 -3.030885,1.239912 -0.137773,-0.137767 -0.275536,-0.413305 -0.413309,-0.551071 -0.137763,-0.137767 -0.551073,-0.413304 -1.102145,-0.964374 1.239918,-0.413304 2.204289,-0.688841 3.030898,-1.102145 0.826611,-0.413304 1.653221,-0.964374 2.617591,-1.653215 z m -0.13776,-10.470364 c 0.96437,-0.13777 1.79098,-0.413303 2.47981,-0.551074 1.23992,3.168664 1.23992,3.168664 1.23992,3.168664 -0.68883,0.137766 -1.51544,0.413303 -2.61759,0.68884 0,-0.275537 -0.13777,-0.68884 -0.27553,-1.102144 0,-0.275537 -0.27554,-1.102145 -0.82661,-2.204286 z M 88.898195,46.044224 c 1.239911,-0.13777 2.342056,-0.275537 3.444197,-0.275537 0.275537,-2.342056 0.275537,-2.342056 0.275537,-2.342056 -1.515448,0 -1.515448,0 -1.515448,0 -1.653216,0 -1.653216,0 -1.653216,0 0.275537,-1.239912 0.275537,-1.239912 0.275537,-1.239912 0.413304,-4.13304 0.413304,-4.13304 0.413304,-4.13304 0.137766,-1.377677 0.137766,-1.377677 0.137766,-1.377677 1.653216,0 1.653216,0 1.653216,0 1.515449,0 1.515449,0 1.515449,0 0.137766,-1.377679 0.137766,-1.377679 0.137766,-1.377679 0,-1.23991 0,-1.23991 0,-1.23991 2.479822,0 2.479822,0 2.479822,0 -0.275536,1.377677 -0.275536,1.377677 -0.275536,1.377677 -0.137763,1.239912 -0.137763,1.239912 -0.137763,1.239912 1.37768,0 1.37768,0 1.37768,0 1.79098,0 1.79098,0 1.79098,0 -0.275536,1.377677 -0.275536,1.377677 -0.275536,1.377677 -0.551072,4.408578 -0.551072,4.408578 -0.551072,4.408578 0,0.964374 0,0.964374 0,0.964374 -1.79098,0 -1.79098,0 -1.79098,0 -1.377684,0 -1.377684,0 -1.377684,0 -0.275533,2.066519 -0.275533,2.066519 -0.275533,2.066519 1.102145,-0.137766 1.102145,-0.137766 1.102145,-0.137766 -0.13777,-0.275537 -0.13777,-0.413304 -0.13777,-0.413304 -0.413303,-0.826608 -0.413303,-0.826608 -0.413303,-0.826608 0.826609,-0.137767 1.515444,-0.275537 2.342053,-0.55107 0.137773,0.55107 0.275536,0.964373 0.413309,1.377678 0.137763,0.413304 0.413299,0.964374 0.551072,1.790981 -0.551072,0.137772 -1.377681,0.413305 -2.204289,0.826608 -0.137773,-0.688836 -0.137773,-0.688836 -0.137773,-0.688836 -2.893125,0.413303 -5.097411,0.826607 -6.61286,1.10214 -0.137766,-0.688837 -0.275533,-1.10214 -0.275533,-1.239912 -0.275537,-0.688837 -0.275537,-0.688837 -0.275537,-0.688837 z m 3.168664,-4.270809 c 0.688836,0 0.688836,0 0.688836,0 C 93.169,38.329217 93.169,38.329217 93.169,38.329217 c -0.826608,0 -0.826608,0 -0.826608,0 -0.275533,3.444198 -0.275533,3.444198 -0.275533,3.444198 z m 3.857503,0 c 0.413299,-3.444198 0.413299,-3.444198 0.413299,-3.444198 -0.964371,0 -0.964371,0 -0.964371,0 -0.413304,3.444198 -0.413304,3.444198 -0.413304,3.444198 z"
       id="path913" />
    <path
       style="fill:#3f3b3a;fill-opacity:1;fill-rule:evenodd;stroke:none;stroke-width:0.413304"
       d="m 123.34019,45.630921 c 0.8266,0 1.92875,-0.137771 3.58197,-0.275537 0.13776,-1.515449 0.13776,-1.515449 0.13776,-1.515449 -1.37768,0 -1.37768,0 -1.37768,0 -1.23991,0 -1.23991,0 -1.23991,0 0.27554,-1.653216 0.27554,-1.653216 0.27554,-1.653216 1.10214,0.137771 1.10214,0.137771 1.10214,0.137771 1.37768,0 1.37768,0 1.37768,0 0.13776,-0.551075 0.13776,-0.551075 0.13776,-0.551075 0,-0.826608 0,-0.826608 0,-0.826608 2.47983,0 2.47983,0 2.47983,0 -0.13777,0.826608 -0.13777,0.826608 -0.13777,0.826608 -0.13777,0.551075 -0.13777,0.551075 -0.13777,0.551075 1.23991,0 1.23991,0 1.23991,0 1.23992,-0.137771 1.23992,-0.137771 1.23992,-0.137771 -0.13777,1.653216 -0.13777,1.653216 -0.13777,1.653216 -1.23991,0 -1.23991,0 -1.23991,0 -1.23992,0 -1.23992,0 -1.23992,0 -0.13776,1.239912 -0.13776,1.239912 -0.13776,1.239912 0.68883,0 1.65321,-0.137767 3.16866,-0.413304 -0.13777,0.551074 -0.27554,0.964378 -0.4133,1.102144 -0.13777,0.688841 -0.13777,0.688841 -0.13777,0.688841 -1.51545,0.137767 -4.27081,0.413305 -7.99054,1.102141 0,-0.275533 -0.13778,-0.413303 -0.13778,-0.55107 0,-0.137766 -0.13776,-0.551071 -0.41329,-1.377678 z m 4.2708,-6.475096 c 0.13777,-1.515449 0.13777,-1.515449 0.13777,-1.515449 -1.23991,0 -1.23991,0 -1.23991,0 -1.10215,0 -1.10215,0 -1.10215,0 0.13777,-1.653215 0.13777,-1.653215 0.13777,-1.653215 1.23991,0.137771 1.23991,0.137771 1.23991,0.137771 1.23992,0 1.23992,0 1.23992,0 0,-0.964379 0,-0.964379 0,-0.964379 0.13776,-1.10214 0.13776,-1.10214 0.13776,-1.10214 2.34205,0 2.34205,0 2.34205,0 -0.13776,1.10214 -0.13776,1.10214 -0.13776,1.10214 -0.13777,0.964379 -0.13777,0.964379 -0.13777,0.964379 1.37768,0 1.37768,0 1.37768,0 0.96438,-0.137771 0.96438,-0.137771 0.96438,-0.137771 -0.27554,1.653215 -0.27554,1.653215 -0.27554,1.653215 -0.8266,0 -0.8266,0 -0.8266,0 -1.37768,0 -1.37768,0 -1.37768,0 -0.13778,1.515449 -0.13778,1.515449 -0.13778,1.515449 1.23992,0 1.23992,0 1.23992,0 1.23991,0 1.23991,0 1.23991,0 -0.27554,1.653215 -0.27554,1.653215 -0.27554,1.653215 -1.23991,-0.137766 -1.23991,-0.137766 -1.23991,-0.137766 -5.09741,0 -5.09741,0 -5.09741,0 -1.23992,0.137766 -1.23992,0.137766 -1.23992,0.137766 0.13778,-1.653215 0.13778,-1.653215 0.13778,-1.653215 1.2399,0 1.2399,0 1.2399,0 1.65322,0 1.65322,0 1.65322,0 z m -4.68411,-1.653216 c 0.27553,0.275537 0.55108,0.413304 0.8266,0.55107 0.27554,0.137772 0.68885,0.275538 1.37769,0.551076 -1.79098,1.928748 -1.79098,1.928748 -1.79098,1.928748 -0.82661,6.8884 -0.82661,6.8884 -0.82661,6.8884 -0.13778,1.515449 -0.13778,1.515449 -0.13778,1.515449 -2.34205,0 -2.34205,0 -2.34205,0 0.27554,-1.515449 0.27554,-1.515449 0.27554,-1.515449 0.55107,-4.408576 0.55107,-4.408576 0.55107,-4.408576 -0.55107,0.413304 -0.96437,0.688841 -1.10214,0.826608 -0.96438,0.551074 -0.96438,0.551074 -0.96438,0.551074 0,-0.275537 -0.13777,-0.413304 -0.13777,-0.688841 0,-0.275537 -0.13776,-0.55107 -0.13776,-0.826607 -0.27554,-0.551071 -0.27554,-0.551071 -0.27554,-0.551071 1.23991,-0.688842 2.20429,-1.51545 2.89313,-2.342058 0.68884,-0.688841 1.2399,-1.515448 1.79098,-2.479823 z m 1.10214,-3.719734 c 0.13777,0.275538 0.41331,0.413304 0.55107,0.551071 0.13778,0.13777 0.55108,0.413303 1.23992,0.826607 -0.96438,0.826608 -1.92875,1.515449 -2.6176,1.928753 -0.82661,0.55107 -1.6532,1.102145 -2.61759,1.653215 -0.41329,-0.55107 -0.96437,-1.102145 -1.51544,-1.515449 0.68884,-0.275533 1.23991,-0.55107 1.92875,-0.964374 0.55108,-0.275537 1.10214,-0.688841 1.51545,-1.102145 0.55107,-0.413304 0.96438,-0.826607 1.51544,-1.377678 z m 8.81715,4.684109 c 1.65321,0.137771 1.65321,0.137771 1.65321,0.137771 3.0309,0 3.0309,0 3.0309,0 1.65322,-0.137771 1.65322,-0.137771 1.65322,-0.137771 -0.27554,1.790986 -0.27554,1.790986 -0.27554,1.790986 -1.23991,0 -1.23991,0 -1.23991,0 -0.68884,0 -0.68884,0 -0.68884,0 -0.96437,7.577236 -0.96437,7.577236 -0.96437,7.577236 0,0.275538 0,0.413304 -0.13778,0.688841 -0.13776,0.137767 -0.55107,0.275533 -1.2399,0.275533 -0.68885,0.137772 -1.51545,0.137772 -2.34206,0.275538 0,-0.275538 0,-0.413304 -0.13777,-0.551071 0,-0.275537 0,-0.413303 -0.13776,-0.688841 -0.41331,-0.826607 -0.41331,-0.826607 -0.41331,-0.826607 0.68884,0.137767 1.10214,0.137767 1.51545,0.137767 0.4133,-0.137767 0.55107,-0.137767 0.68884,-0.137767 0.13776,-0.137766 0.13776,-0.275538 0.13776,-0.551071 0.82661,-6.199558 0.82661,-6.199558 0.82661,-6.199558 -0.4133,0 -0.4133,0 -0.4133,0 -1.79098,0 -1.79098,0 -1.79098,0 0.27553,-1.790986 0.27553,-1.790986 0.27553,-1.790986 z m 0.55108,-3.719735 c 1.65322,0.137771 1.65322,0.137771 1.65322,0.137771 2.20427,0 2.20427,0 2.20427,0 1.79098,-0.137771 1.79098,-0.137771 1.79098,-0.137771 -0.13776,1.790986 -0.13776,1.790986 -0.13776,1.790986 -1.79098,-0.13777 -1.79098,-0.13777 -1.79098,-0.13777 -2.20429,0 -2.20429,0 -2.20429,0 -1.79098,0.13777 -1.79098,0.13777 -1.79098,0.13777 z"
       id="path915" />
  </g>
</svg>
